<?xml version="1.0" encoding="UTF-8" standalone="no"?>
<!-- Created with Inkscape (http://www.inkscape.org/) -->

<svg
   xmlns:dc="http://purl.org/dc/elements/1.1/"
   xmlns:cc="http://creativecommons.org/ns#"
   xmlns:rdf="http://www.w3.org/1999/02/22-rdf-syntax-ns#"
   xmlns:svg="http://www.w3.org/2000/svg"
   xmlns="http://www.w3.org/2000/svg"
   xmlns:sodipodi="http://sodipodi.sourceforge.net/DTD/sodipodi-0.dtd"
   xmlns:inkscape="http://www.inkscape.org/namespaces/inkscape"
   id="svg6408"
   version="1.1"
   inkscape:version="0.91 r13725"
   xml:space="preserve"
   width="490"
   height="200"
   viewBox="0 0 490 200"
   sodipodi:docname="sunpy_logo_word.svg">
<defs>
  <style type="text/css">@import url(http://fonts.googleapis.com/css?family=Source+Sans+Pro);</style>
</defs>
   <metadata
     id="metadata6414"><rdf:RDF><cc:Work
         rdf:about=""><dc:format>image/svg+xml</dc:format><dc:type
           rdf:resource="http://purl.org/dc/dcmitype/StillImage" /><dc:title></dc:title></cc:Work></rdf:RDF></metadata><defs
     id="defs6412"><clipPath
       clipPathUnits="userSpaceOnUse"
       id="clipPath6422"><path
         d="m 96.377,140.225 -5.519,-2.453 c -4.102,-2.059 -15.917,-11.28 -15.917,-11.28 l 0,0 C 73.06,124.673 67.46,118.167 63.812,111.039 l 0,0 C 60.439,104.45 58.931,97.209 58.884,95.481 l 0,0 c 0,0 0.689,-7.888 0.995,-9.174 l 0,0 c 0.284,-0.744 2.278,-6.832 3.504,-8.993 l 0,0 2.672,-3.996 c 1.666,-2.133 3.676,-4.176 6.087,-6.112 l 0,0 3.026,-2.229 c 1.345,-0.906 9.288,-4.904 11.071,-5.569 l 0,0 5.48,-1.701 c 7.242,-1.779 13.955,-1.579 20.325,-0.094 l 0,0 c 0.743,0.284 1.509,0.49 2.296,0.614 l 0,0 c 1.371,0.519 9.575,3.383 9.575,3.383 l 0,0 c 3.763,1.485 7.41,3.41 10.677,6.749 l 0,0 c 0.304,0.525 0.607,1.051 0.912,1.576 l 0,0 c 3.046,4.873 -3.483,8.645 -8.293,9.161 l 0,0 c -4.095,0.438 -7.248,-1.628 -10.976,-3.039 l 0,0 C 110.369,73.839 104.211,72.945 97.22,73.946 l 0,0 C 87.018,75.407 77.485,81.875 75.207,90.714 l 0,0 c -0.285,0.743 -0.489,1.508 -0.615,2.296 l 0,0 c -0.8,4.399 -0.7,9.038 2,14.374 l 0,0 c 0.452,1.249 1.596,3.229 2.453,4.244 l 0,0 c 5.551,8.168 13.18,11.724 20.532,13.691 l 0,0 c 7.375,1.972 15.825,2.31 24.776,-2.19 l 0,0 c 0.368,0.157 0.951,-0.49 1.405,-0.649 l 0,0 c 0.242,-0.14 0.485,-0.28 0.728,-0.421 l 0,0 c 0.365,-0.312 1.217,-0.495 1.263,-0.892 l 0,0 c 2.452,-1.088 2.432,-2.835 3.122,-4.393 l 0,0 c 0.251,-0.617 0.422,-1.254 0.512,-1.913 l 0,0 c 1.889,-5.722 -1.508,-12.683 -6.546,-16.922 l 0,0 c -4.942,-4.153 -10.827,-7.91 -16.843,-5.633 l 0,0 c -0.404,-0.035 -1.526,0.614 -1.698,0.982 l 0,0 c -3.98,3.035 -5.354,6.768 -4.409,11.122 l 0,0 c 3.534,-1.139 4.004,-5.806 7.73,-7.057 l 0,0 c 3.004,-1.009 5.731,0.948 7.958,3.974 l 0,0 c 0.304,0.525 0.609,1.05 0.912,1.576 l 0,0 c 3.15,6.138 0.671,9.115 -4.237,13.099 l 0,0 c -0.768,0.443 -1.538,0.887 -2.304,1.331 l 0,0 c -9.881,3.466 -17.341,4.085 -23.472,-6.465 l 0,0 c -0.537,-0.929 -1.075,-1.859 -1.612,-2.789 l 0,0 C 82.388,101.411 85.597,96.47 88.953,91.828 l 0,0 c 2.096,-2.904 4.637,-6.576 8.381,-8.727 l 0,0 c 7.684,-4.41 16.175,-2.358 22.182,-0.527 l 0,0 c 3.868,1.18 7.884,2.81 11.545,5.211 l 0,0 3.617,2.76 c 1.322,1.171 2.565,2.473 3.692,3.94 l 0,0 c 1.516,1.975 2.674,4.04 3.547,6.142 l 0,0 1.383,4.3 c 0.985,4.228 0.957,8.48 0.3,12.386 l 0,0 -1.459,4.916 c -1.926,4.548 -5.808,8.572 -11.492,12.114 l 0,0 -3.596,2.268 c -0.586,0.339 -1.174,0.679 -1.76,1.017 l 0,0 c -0.613,-0.023 -1.438,0.778 -2.132,1.071 l 0,0 c -2.822,1.484 -5.501,2.503 -8.076,3.136 l 0,0 -4.359,0.725 c -0.791,0.068 -1.573,0.101 -2.348,0.101 l 0,0 c -4.151,0 -8.088,-0.942 -12.001,-2.436"
         id="path6424"
         inkscape:connector-curvature="0" /></clipPath><clipPath
       clipPathUnits="userSpaceOnUse"
       id="clipPath6488"><path
         d="m 0,200 577.065,0 0,-200 L 0,0 0,200 Z"
         id="path6490"
         inkscape:connector-curvature="0" /></clipPath></defs><sodipodi:namedview
     pagecolor="#ffffff"
     bordercolor="#666666"
     borderopacity="1"
     objecttolerance="10"
     gridtolerance="10"
     guidetolerance="10"
     inkscape:pageopacity="0"
     inkscape:pageshadow="2"
     inkscape:window-width="1140"
     inkscape:window-height="681"
     id="namedview6410"
     showgrid="false"
     inkscape:zoom="0.51016784"
     inkscape:cx="76.44543"
     inkscape:cy="125"
     inkscape:window-x="40"
     inkscape:window-y="10"
     inkscape:window-maximized="0"
     inkscape:current-layer="g6486" /><g
     id="g6416"
     inkscape:groupmode="layer"
     transform="matrix(1.25,0,0,-1.25,0,200)"><g
       id="g6484"><g
         clip-path="url(#clipPath6488)">
<text
           transform="scale(1,-1)"
           style="font-variant:normal;font-weight:bold;font-stretch:normal;font-size:140px;font-family:'Source Sans Pro';-inkscape-font-specification:SourceSansPro-Bold;writing-mode:lr-tb;fill:#f47920;fill-opacity:1;fill-rule:nonzero;stroke:none"
           x="15.426491"
           y="-57.520027">sun</text>
<text
           transform="scale(1,-1)"
           style="font-variant:normal;font-weight:normal;font-stretch:normal;font-size:140px;font-family:'Source Sans Pro';-inkscape-font-specification:SourceSansPro-Regular;writing-mode:lr-tb;fill:#454545;fill-opacity:1;fill-rule:nonzero;stroke:none"
           x="237.04649"
           y="-57.520027">py</text>
</g></g></g></svg>
